<?xml version="1.0" standalone="no"?>
<!DOCTYPE svg PUBLIC "-//W3C//DTD SVG 20010904//EN"
 "http://www.w3.org/TR/2001/REC-SVG-20010904/DTD/svg10.dtd">
<svg version="1.0" xmlns="http://www.w3.org/2000/svg"
 width="494.000000pt" height="714.000000pt" viewBox="0 0 494.000000 714.000000"
 preserveAspectRatio="xMidYMid meet">

<g transform="translate(0.000000,714.000000) scale(0.100000,-0.100000)"
fill="#000000" stroke="none">
<path d="M0 3570 l0 -3570 2470 0 2470 0 0 3570 0 3570 -2470 0 -2470 0 0
-3570z m2645 2715 c44 -88 149 -229 245 -330 89 -94 195 -225 345 -425 246
-326 306 -467 324 -755 5 -77 7 -143 4 -147 -11 -19 9 -26 35 -12 17 9 58 14
110 14 80 0 87 -2 154 -41 39 -23 87 -56 107 -74 30 -27 54 -37 146 -57 103
-23 110 -26 113 -50 3 -22 -4 -29 -60 -55 -35 -16 -78 -36 -96 -43 -39 -15
-78 -59 -87 -99 -12 -55 -109 -147 -238 -225 -55 -33 -178 -76 -257 -91 -19
-4 -43 -9 -54 -12 -12 -3 -40 -51 -81 -137 -70 -146 -111 -206 -241 -348 -75
-82 -107 -108 -206 -168 -64 -38 -170 -91 -235 -116 -199 -77 -231 -89 -468
-184 -126 -50 -272 -110 -323 -132 -84 -37 -94 -40 -109 -26 -8 9 -12 24 -9
34 7 23 204 209 267 252 33 22 54 47 74 89 17 35 53 81 88 115 33 32 68 75 78
97 10 22 46 69 79 103 34 35 82 93 107 131 25 37 72 91 104 119 34 29 67 69
78 92 22 51 68 106 88 106 26 0 8 23 -20 26 -45 5 -131 49 -233 120 -81 57
-103 67 -133 65 -44 -2 -172 -24 -266 -45 -39 -9 -110 -23 -160 -32 -106 -19
-551 -151 -651 -193 -38 -16 -116 -51 -174 -78 -58 -27 -121 -56 -140 -63 -19
-8 -72 -36 -118 -63 -46 -27 -89 -47 -97 -43 -16 6 -20 34 -7 52 17 25 247
189 372 264 125 76 459 246 523 266 27 9 28 11 30 94 3 91 24 150 74 204 13
14 19 26 14 26 -5 0 -18 21 -28 48 -24 63 -24 171 1 235 l18 49 -189 191
c-260 264 -429 481 -421 539 6 47 42 25 189 -115 79 -77 194 -177 254 -223 61
-46 144 -111 185 -144 41 -34 120 -89 175 -124 55 -35 152 -96 215 -136 168
-107 369 -205 541 -265 59 -21 76 -22 165 -15 54 4 106 5 116 2 21 -5 26 23 5
31 -7 2 -26 31 -42 63 -21 44 -30 80 -35 144 -5 61 -15 102 -35 145 -39 84
-55 150 -55 225 0 36 -9 93 -20 129 -12 38 -22 103 -24 165 -4 79 -10 115 -31
164 -36 88 -47 154 -35 207 9 40 7 50 -34 137 -45 97 -59 141 -76 245 -8 45
-8 69 0 83 14 26 50 23 65 -5z m296 -3787 c0 -35 2 -39 9 -22 20 50 92 69 148
40 57 -30 92 -86 113 -186 6 -27 15 -50 20 -50 5 0 9 -7 9 -15 0 -8 -4 -15 -9
-15 -5 0 -12 -19 -16 -42 -22 -133 -112 -217 -233 -218 -123 0 -206 78 -219
206 -4 36 -10 54 -19 54 -8 0 -14 7 -14 15 0 8 6 15 13 15 7 0 19 30 29 72 20
82 55 140 101 168 52 32 67 27 68 -22z m-1971 18 c0 -8 -4 -16 -10 -18 -14 -5
50 -218 67 -218 15 0 18 -27 3 -32 -5 -2 3 -51 19 -113 20 -81 32 -111 44
-113 9 -2 17 -10 17 -18 0 -10 -13 -14 -45 -14 -32 0 -45 4 -45 14 0 8 5 16
11 18 8 3 6 29 -8 88 l-20 85 -74 3 -75 3 -26 -91 c-20 -70 -22 -90 -12 -90 8
0 14 -7 14 -15 0 -12 -19 -15 -115 -15 -93 0 -115 3 -115 14 0 8 5 16 11 18
15 5 79 222 68 226 -14 6 -10 32 4 32 18 0 75 212 58 218 -6 2 -11 10 -11 18
0 11 23 14 120 14 97 0 120 -3 120 -14z m508 -2 c33 -23 52 -67 52 -124 0 -78
-31 -126 -89 -139 l-29 -6 62 -112 c33 -62 67 -113 74 -113 6 0 12 -7 12 -15
0 -11 -11 -15 -40 -15 -28 0 -40 4 -40 14 0 8 4 16 9 18 5 2 -18 54 -51 116
-55 103 -62 112 -89 112 l-29 0 0 -115 c0 -96 3 -115 15 -115 8 0 15 -7 15
-15 0 -12 -19 -15 -115 -15 -96 0 -115 3 -115 15 0 8 5 15 10 15 6 0 10 45 10
115 0 70 -4 115 -10 115 -5 0 -10 7 -10 15 0 8 5 15 10 15 6 0 10 43 10 110 0
67 -4 110 -10 110 -5 0 -10 7 -10 15 0 23 325 22 358 -1z m572 -14 c0 -20 -5
-30 -15 -30 -8 0 -15 7 -15 15 0 12 -13 15 -60 15 l-60 0 0 -110 c0 -91 3
-110 15 -110 8 0 15 -9 15 -20 0 -13 -5 -18 -15 -14 -13 5 -15 -11 -15 -110 0
-71 4 -116 10 -116 6 0 10 -7 10 -15 0 -12 -19 -15 -110 -15 -91 0 -110 3
-110 15 0 8 5 15 10 15 6 0 10 45 10 115 0 70 -4 115 -10 115 -5 0 -10 7 -10
15 0 8 5 15 10 15 6 0 10 43 10 110 l0 110 -55 0 c-42 0 -55 -3 -55 -15 0 -8
-7 -15 -15 -15 -10 0 -15 10 -15 30 l0 30 235 0 235 0 0 -30z m250 16 c0 -8
-5 -16 -11 -18 -7 -2 7 -72 41 -198 28 -107 53 -202 56 -210 3 -8 19 22 37 69
21 58 27 86 19 89 -7 2 -12 10 -12 18 0 10 12 14 40 14 28 0 40 -4 40 -14 0
-8 -5 -16 -11 -18 -11 -4 5 -76 32 -146 11 -25 13 -22 36 58 16 55 21 86 14
88 -16 5 -13 32 4 32 9 0 20 21 30 58 9 31 23 80 30 107 9 30 11 51 5 53 -6 2
-10 10 -10 18 0 10 12 14 40 14 29 0 40 -4 40 -15 0 -8 -7 -15 -15 -15 -8 0
-19 -17 -25 -42 -7 -24 -20 -73 -30 -110 -16 -57 -16 -68 -4 -68 8 0 14 -7 14
-15 0 -8 -8 -15 -18 -15 -15 0 -24 -22 -49 -112 -17 -62 -27 -114 -22 -116 20
-8 8 -32 -16 -32 -22 0 -27 8 -51 88 -14 48 -29 90 -33 94 -4 4 -19 -28 -33
-72 -14 -44 -22 -80 -17 -80 5 0 9 -7 9 -15 0 -12 -19 -15 -115 -15 -93 0
-115 3 -115 14 0 8 5 16 11 18 8 3 4 29 -11 83 -35 130 -41 145 -56 145 -16 0
-19 27 -3 32 15 5 -42 218 -58 218 -7 0 -13 7 -13 15 0 12 19 15 115 15 93 0
115 -3 115 -14z m1318 -2 c33 -23 52 -67 52 -124 0 -78 -31 -126 -89 -139
l-29 -6 62 -112 c33 -62 67 -113 74 -113 6 0 12 -7 12 -15 0 -11 -11 -15 -40
-15 -28 0 -40 4 -40 14 0 8 4 16 9 18 5 2 -18 54 -51 116 -55 103 -62 112 -89
112 l-29 0 0 -115 c0 -96 3 -115 15 -115 8 0 15 -7 15 -15 0 -12 -19 -15 -115
-15 -96 0 -115 3 -115 15 0 8 5 15 10 15 6 0 10 45 10 115 0 70 -4 115 -10
115 -5 0 -10 7 -10 15 0 8 5 15 10 15 6 0 10 43 10 110 0 67 -4 110 -10 110
-5 0 -10 7 -10 15 0 23 325 22 358 -1z m332 1 c0 -8 -7 -15 -15 -15 -13 0 -15
-20 -15 -121 l0 -121 84 115 c63 85 83 120 79 136 -5 19 -1 21 41 21 34 0 46
-4 46 -15 0 -8 -8 -15 -17 -15 -11 0 -41 -32 -73 -77 -30 -42 -66 -91 -79
-109 l-24 -33 98 -131 c53 -71 103 -130 111 -130 8 0 14 -7 14 -15 0 -11 -12
-15 -45 -15 -32 0 -45 4 -45 14 0 8 4 16 9 18 6 2 -24 48 -65 103 -42 55 -80
107 -85 115 -8 13 -12 11 -29 -9 -17 -20 -20 -38 -20 -117 0 -77 3 -94 15 -94
8 0 15 -7 15 -15 0 -12 -19 -15 -115 -15 -96 0 -115 3 -115 15 0 8 7 15 15 15
12 0 15 19 15 115 0 96 -3 115 -15 115 -8 0 -15 7 -15 15 0 8 7 15 15 15 12 0
15 19 15 110 0 91 -3 110 -15 110 -8 0 -15 7 -15 15 0 12 19 15 115 15 96 0
115 -3 115 -15z m-869 -827 c0 -35 2 -39 9 -22 20 50 92 69 148 40 57 -30 92
-86 113 -186 6 -27 15 -50 20 -50 5 0 9 -7 9 -15 0 -8 -4 -15 -9 -15 -5 0 -12
-19 -16 -42 -22 -133 -112 -217 -233 -218 -123 0 -206 78 -219 206 -4 36 -10
54 -19 54 -8 0 -14 7 -14 15 0 8 6 15 13 15 7 0 19 30 29 72 20 82 55 140 101
168 52 32 67 27 68 -22z m520 0 c0 -35 2 -39 9 -22 20 50 92 69 148 40 57 -30
92 -86 113 -186 6 -27 15 -50 20 -50 5 0 9 -7 9 -15 0 -8 -4 -15 -9 -15 -5 0
-12 -19 -16 -42 -22 -133 -112 -217 -233 -218 -123 0 -206 78 -219 206 -4 36
-10 54 -19 54 -8 0 -14 7 -14 15 0 8 6 15 13 15 7 0 19 30 29 72 20 82 55 140
101 168 52 32 67 27 68 -22z m-2221 2 c0 -20 -5 -30 -15 -30 -8 0 -15 7 -15
15 0 12 -13 15 -60 15 l-60 0 0 -110 c0 -91 3 -110 15 -110 8 0 15 -9 15 -20
0 -13 -5 -18 -15 -14 -13 5 -15 -11 -15 -110 0 -71 4 -116 10 -116 6 0 10 -7
10 -15 0 -12 -19 -15 -110 -15 -91 0 -110 3 -110 15 0 8 5 15 10 15 6 0 10 45
10 115 0 70 -4 115 -10 115 -5 0 -10 7 -10 15 0 8 5 15 10 15 6 0 10 43 10
110 l0 110 -55 0 c-42 0 -55 -3 -55 -15 0 -8 -7 -15 -15 -15 -10 0 -15 10 -15
30 l0 30 235 0 235 0 0 -30z m380 16 c0 -8 -4 -16 -10 -18 -14 -5 50 -218 67
-218 15 0 18 -27 3 -32 -5 -2 3 -51 19 -113 20 -81 32 -111 44 -113 9 -2 17
-10 17 -18 0 -10 -13 -14 -45 -14 -32 0 -45 4 -45 14 0 8 5 16 11 18 8 3 6 29
-8 88 l-20 85 -74 3 -75 3 -26 -91 c-20 -70 -22 -90 -12 -90 8 0 14 -7 14 -15
0 -12 -19 -15 -115 -15 -93 0 -115 3 -115 14 0 8 5 16 11 18 15 5 79 222 68
226 -14 6 -10 32 4 32 18 0 75 212 58 218 -6 2 -11 10 -11 18 0 11 23 14 120
14 97 0 120 -3 120 -14z m620 -16 c0 -20 -5 -30 -15 -30 -8 0 -15 7 -15 15 0
12 -13 15 -60 15 l-60 0 0 -115 c0 -96 3 -115 15 -115 8 0 15 -4 15 -10 0 -5
-7 -10 -15 -10 -12 0 -15 -19 -15 -115 0 -70 4 -115 10 -115 6 0 10 -7 10 -15
0 -12 -19 -15 -110 -15 -91 0 -110 3 -110 15 0 8 5 15 10 15 16 0 13 227 -2
234 -10 5 -10 7 0 12 8 4 12 38 12 120 l0 114 -55 0 c-42 0 -55 -3 -55 -15 0
-8 -7 -15 -15 -15 -10 0 -15 10 -15 30 l0 30 235 0 235 0 0 -30z m490 0 c0
-20 -5 -30 -15 -30 -8 0 -15 7 -15 15 0 12 -13 15 -60 15 l-60 0 0 -115 c0
-96 3 -115 15 -115 8 0 15 -4 15 -10 0 -5 -7 -10 -15 -10 -12 0 -15 -19 -15
-115 0 -70 4 -115 10 -115 6 0 10 -7 10 -15 0 -12 -19 -15 -110 -15 -91 0
-110 3 -110 15 0 8 5 15 10 15 16 0 13 227 -2 234 -10 5 -10 7 0 12 8 4 12 38
12 120 l0 114 -55 0 c-42 0 -55 -3 -55 -15 0 -8 -7 -15 -15 -15 -10 0 -15 10
-15 30 l0 30 235 0 235 0 0 -30z m-1150 -762 c0 -15 9 -18 53 -18 28 0 58 -4
66 -9 19 -13 17 -62 -5 -78 -17 -12 -16 -14 6 -38 l23 -25 -26 0 c-15 0 -27 5
-27 12 0 19 -32 48 -53 48 -16 0 -18 -5 -15 -30 4 -25 1 -30 -16 -30 -19 0
-21 5 -18 55 5 79 -3 105 -33 105 -25 0 -25 -1 -25 -80 0 -73 -2 -80 -20 -80
-18 0 -20 7 -20 81 l0 81 -35 -4 c-27 -3 -35 0 -35 12 0 12 15 15 90 15 79 0
90 -2 90 -17z m257 -24 c-3 -4 10 -37 29 -75 31 -63 33 -69 15 -69 -11 0 -23
9 -26 20 -5 15 -15 20 -42 20 -26 0 -36 -5 -40 -20 -3 -11 -13 -20 -23 -20
-16 0 -14 8 14 75 26 63 35 74 55 75 13 0 22 -3 18 -6z m218 -14 c11 -12 19
-36 19 -55 0 -55 -26 -75 -98 -75 l-61 0 0 75 0 75 61 0 c49 0 65 -4 79 -20z
m80 -55 c0 -65 -2 -75 -17 -75 -16 0 -18 10 -18 75 0 65 2 75 18 75 15 0 17
-10 17 -75z m173 69 c17 -5 20 -10 12 -19 -8 -10 -19 -10 -45 -2 -73 22 -118
-56 -52 -93 25 -14 30 -13 58 3 29 16 49 15 49 -2 0 -13 -49 -31 -87 -31 -73
0 -109 76 -61 127 22 23 74 30 126 17z m87 -69 c0 -68 -2 -75 -20 -75 -18 0
-20 7 -20 75 0 68 2 75 20 75 18 0 20 -7 20 -75z m175 65 c28 -15 40 -61 25
-97 -15 -35 -31 -43 -88 -43 -77 0 -115 74 -65 127 16 17 32 23 65 23 25 0 53
-4 63 -10z m108 2 c-2 -5 14 -27 35 -50 l37 -42 0 50 c0 41 3 50 18 50 15 0
17 -10 17 -75 0 -70 -1 -75 -22 -75 -12 0 -24 8 -27 18 -4 10 -22 33 -41 52
l-35 34 0 -52 c0 -43 -3 -52 -17 -52 -16 0 -18 10 -18 75 l0 75 28 0 c15 0 26
-4 25 -8z m229 2 c-3 -4 10 -37 29 -75 31 -63 33 -69 15 -69 -11 0 -23 9 -26
20 -5 15 -15 20 -42 20 -26 0 -36 -5 -40 -20 -3 -11 -13 -20 -23 -20 -16 0
-14 8 14 75 26 63 35 74 55 75 13 0 22 -3 18 -6z m115 -60 l-4 -66 51 3 c40 3
51 1 51 -11 0 -12 -13 -14 -67 -12 l-68 3 0 75 c0 67 2 74 20 74 18 0 20 -5
17 -66z"/>
<path d="M2620 6209 c0 -11 6 -33 14 -47 8 -15 24 -56 36 -92 31 -89 73 -171
135 -260 143 -208 284 -400 322 -441 46 -49 57 -89 25 -89 -21 0 -116 95 -183
185 -84 111 -209 301 -209 317 0 17 -27 44 -36 35 -10 -10 46 -158 93 -248 63
-120 213 -317 327 -429 94 -92 116 -130 77 -130 -59 0 -330 297 -383 419 -29
68 -40 40 -22 -54 31 -158 202 -385 380 -505 69 -47 94 -71 94 -92 0 -30 -32
-21 -109 32 -134 92 -275 234 -306 308 -8 17 -19 32 -24 32 -13 0 -14 -37 -2
-45 5 -3 13 -20 16 -38 4 -17 21 -61 37 -96 35 -74 188 -234 306 -321 74 -55
94 -90 50 -90 -36 0 -304 212 -293 231 3 3 -2 12 -9 18 -23 19 -30 -6 -13 -42
9 -18 33 -70 55 -117 41 -88 64 -110 117 -110 36 0 197 -39 211 -51 19 -16 38
-1 23 17 -19 23 -5 177 22 251 l22 61 -27 61 c-15 33 -54 165 -87 293 -33 128
-65 253 -71 277 -13 49 -91 153 -298 396 -161 188 -250 302 -250 319 0 18 -24
66 -32 66 -5 0 -8 -9 -8 -21z"/>
<path d="M3280 5364 c0 -8 5 -25 11 -36 6 -12 29 -89 50 -172 20 -83 51 -185
68 -226 37 -91 38 -109 6 -204 -20 -61 -25 -93 -24 -166 1 -50 5 -89 8 -88 4
2 28 26 55 55 44 48 48 57 57 125 20 157 -52 427 -169 638 -11 19 -25 47 -31
63 -11 29 -31 37 -31 11z"/>
<path d="M1335 5340 c-8 -14 387 -417 525 -535 149 -127 545 -363 587 -349 10
3 38 15 62 26 24 10 65 22 92 25 54 6 64 19 22 29 -72 15 -292 112 -389 170
-250 150 -440 273 -507 327 -40 32 -124 98 -189 148 -64 49 -128 105 -143 124
-30 36 -51 49 -60 35z"/>
<path d="M1761 4793 c-1 -10 -4 -50 -7 -89 -5 -59 -3 -79 16 -122 12 -28 25
-51 29 -50 14 3 169 -14 204 -23 28 -7 37 -15 37 -31 0 -19 -4 -20 -47 -14
-27 4 -81 9 -121 13 -84 7 -99 -1 -139 -80 -23 -47 -46 -174 -33 -182 4 -2 40
10 81 27 195 82 525 182 567 171 16 -4 22 -1 22 11 0 10 -8 16 -21 16 -55 0
-400 215 -525 328 -52 46 -62 51 -63 25z"/>
<path d="M3590 4567 c-29 -14 -99 -65 -118 -87 -7 -8 -18 -27 -23 -42 -13 -34
-31 -35 -101 -8 -29 12 -105 33 -168 47 -201 46 -426 35 -627 -33 -39 -13 -79
-24 -87 -24 -9 0 -16 -7 -16 -15 0 -8 7 -15 15 -15 8 0 43 -25 77 -56 89 -80
165 -129 285 -185 57 -27 108 -49 112 -49 5 0 44 20 87 45 80 45 202 89 348
126 51 12 107 36 151 63 100 60 130 70 215 71 180 1 213 -57 72 -129 -55 -28
-192 -58 -251 -54 l-55 3 -13 -70 c-20 -109 -44 -195 -54 -195 -5 0 -9 -7 -9
-16 0 -18 26 -15 129 17 117 37 216 95 309 182 43 42 55 61 72 117 11 37 20
84 20 104 0 74 -62 151 -157 196 -49 23 -170 27 -213 7z"/>
<path d="M4016 4421 c-6 -10 0 -71 9 -79 3 -3 14 4 25 16 11 12 26 19 33 16 8
-3 20 2 27 10 10 13 9 17 -3 22 -9 3 -21 3 -27 -1 -6 -4 -22 0 -35 9 -13 9
-26 12 -29 7z"/>
<path d="M2310 4365 c-25 -7 -90 -25 -145 -39 -55 -15 -179 -57 -275 -95 -96
-37 -215 -82 -263 -100 -94 -35 -163 -69 -372 -186 -71 -40 -169 -94 -217
-119 -81 -43 -107 -66 -75 -66 6 0 44 18 82 40 135 77 211 110 335 146 69 19
171 51 227 70 56 19 146 44 200 55 54 12 136 30 183 40 160 36 577 93 604 83
14 -5 17 -3 14 12 -2 10 -9 18 -14 17 -6 -1 -52 34 -103 78 -99 83 -104 85
-181 64z"/>
<path d="M3619 4331 c-25 -16 -54 -30 -64 -32 -10 -2 -20 -10 -23 -16 -9 -30
170 -7 243 31 17 9 38 16 48 16 20 0 23 16 5 22 -7 3 -47 5 -88 6 -67 2 -80
-1 -121 -27z m91 -11 c0 -16 -7 -20 -30 -20 -49 0 -37 37 13 39 11 1 17 -6 17
-19z"/>
<path d="M3377 4234 c-3 -4 -55 -24 -114 -44 -154 -54 -255 -98 -278 -122
l-20 -20 25 7 c14 4 42 16 62 26 50 26 138 26 138 1 0 -14 -14 -20 -67 -30
-45 -8 -114 -34 -199 -76 -107 -52 -142 -75 -188 -122 -43 -44 -53 -60 -41
-62 9 -2 25 5 36 16 37 41 260 132 321 132 20 0 28 -5 28 -18 0 -14 -20 -24
-87 -46 -109 -35 -317 -141 -380 -195 -27 -22 -61 -50 -77 -64 -42 -35 -29
-53 15 -21 47 33 364 153 407 154 25 0 32 -4 32 -19 0 -15 -20 -25 -97 -51
-106 -34 -292 -109 -363 -145 -43 -22 -211 -165 -218 -185 -7 -18 22 -10 47
14 45 42 260 118 399 141 34 5 42 4 42 -9 0 -20 -10 -25 -96 -47 -79 -20 -299
-113 -367 -156 -66 -41 -177 -136 -177 -150 0 -18 16 -16 37 6 16 16 150 76
327 146 38 15 93 29 123 32 49 5 55 4 52 -12 -2 -10 -22 -24 -44 -32 -349
-129 -507 -205 -622 -302 -45 -37 -92 -75 -104 -83 -13 -8 -19 -19 -16 -25 5
-8 33 4 80 33 43 25 136 65 223 95 82 28 210 75 284 104 74 29 146 56 160 60
14 4 51 21 83 38 83 43 122 97 252 342 57 106 92 163 168 268 31 42 65 103 77
135 21 55 86 189 112 232 7 11 21 23 30 26 10 3 18 12 18 20 0 15 -12 19 -23
8z"/>
<path d="M3432 4218 c-7 -7 -12 -18 -12 -25 0 -7 -15 -36 -33 -65 -19 -29 -52
-100 -76 -158 -23 -58 -62 -132 -86 -165 -42 -58 -151 -236 -225 -367 -19 -34
-47 -76 -62 -94 -30 -34 -34 -44 -17 -44 17 0 257 250 296 308 84 127 160 305
208 487 13 49 27 100 31 113 7 24 -5 29 -24 10z"/>
<path d="M2568 4155 c-3 -3 -31 -6 -62 -6 -38 -1 -56 -5 -53 -13 2 -6 14 -13
28 -14 13 -2 83 -40 156 -84 l131 -80 51 27 c27 15 52 34 55 41 3 8 13 14 22
14 20 0 13 22 -8 26 -9 1 -63 23 -119 48 -74 33 -115 46 -149 46 -26 0 -49 -2
-52 -5z"/>
<path d="M2868 2473 c-40 -43 -70 -111 -75 -172 l-5 -56 61 -1 61 -1 0 129 c0
70 -4 128 -8 128 -5 0 -20 -12 -34 -27z"/>
<path d="M2998 2489 c-20 -11 -24 -54 -7 -65 7 -4 16 1 21 10 9 16 38 23 38 8
0 -4 -7 -18 -16 -30 -22 -31 -60 -29 -78 6 -14 26 -15 23 -16 -60 0 -72 3 -88
15 -88 8 0 15 -7 15 -15 0 -8 -7 -15 -15 -15 -12 0 -15 -19 -15 -109 0 -123 2
-126 72 -115 78 13 157 97 173 187 6 30 4 37 -9 37 -9 0 -16 7 -16 15 0 8 7
15 15 15 18 0 19 11 1 77 -32 119 -111 182 -178 142z"/>
<path d="M787 2493 c-2 -5 -16 -55 -31 -113 -15 -58 -30 -113 -32 -123 -4 -14
0 -17 23 -16 15 1 35 -1 43 -5 29 -12 47 18 78 131 18 61 32 117 32 122 0 12
-106 15 -113 4z"/>
<path d="M894 2347 l-30 -112 59 -3 c33 -2 61 -1 63 1 5 4 -44 195 -55 214 -4
7 -20 -38 -37 -100z"/>
<path d="M1170 2378 l0 -133 60 -1 60 -1 0 133 0 134 -60 0 -60 0 0 -132z"/>
<path d="M1320 2395 l0 -115 64 0 c59 0 66 2 90 31 46 54 28 167 -30 189 -14
6 -48 10 -75 10 l-49 0 0 -115z"/>
<path d="M1750 2380 l0 -129 33 -5 c17 -3 43 -4 57 -3 l25 2 3 133 3 132 -61
0 -60 0 0 -130z"/>
<path d="M2132 2483 c3 -10 18 -71 33 -135 17 -70 32 -113 37 -105 6 9 8 9 8
0 0 -9 7 -10 24 -3 13 4 35 7 50 6 14 -2 26 0 26 3 0 3 -14 61 -31 129 l-32
122 -60 0 c-52 0 -59 -2 -55 -17z"/>
<path d="M3310 2378 l0 -133 60 -1 60 -1 0 133 0 134 -60 0 -60 0 0 -132z"/>
<path d="M3460 2395 l0 -115 64 0 c59 0 66 2 90 31 46 54 28 167 -30 189 -14
6 -48 10 -75 10 l-49 0 0 -115z"/>
<path d="M3770 2377 l0 -133 60 1 60 0 0 132 0 133 -60 0 -60 0 0 -133z"/>
<path d="M3008 1663 c-34 -36 -65 -99 -73 -148 l-7 -40 28 27 28 28 33 -32 33
-32 0 112 c0 62 -4 112 -8 112 -5 0 -20 -12 -34 -27z"/>
<path d="M3138 1679 c-20 -11 -24 -54 -7 -65 7 -4 16 1 21 10 9 16 38 23 38 8
0 -4 -7 -18 -16 -30 -22 -31 -60 -29 -78 6 -14 26 -15 23 -16 -60 0 -72 3 -88
15 -88 8 0 15 -7 15 -15 0 -8 -7 -15 -15 -15 -12 0 -15 -19 -15 -109 0 -123 2
-126 72 -115 78 13 157 97 173 187 6 30 4 37 -9 37 -9 0 -16 7 -16 15 0 8 7
15 15 15 18 0 19 11 1 77 -32 119 -111 182 -178 142z"/>
<path d="M3528 1663 c-34 -36 -65 -99 -73 -148 l-7 -40 28 27 28 28 33 -32 33
-32 0 112 c0 62 -4 112 -8 112 -5 0 -20 -12 -34 -27z"/>
<path d="M3658 1679 c-20 -11 -24 -54 -7 -65 7 -4 16 1 21 10 9 16 38 23 38 8
0 -4 -7 -18 -16 -30 -22 -31 -60 -29 -78 6 -14 26 -15 23 -16 -60 0 -72 3 -88
15 -88 8 0 15 -7 15 -15 0 -8 -7 -15 -15 -15 -12 0 -15 -19 -15 -109 0 -123 2
-126 72 -115 78 13 157 97 173 187 6 30 4 37 -9 37 -9 0 -16 7 -16 15 0 8 7
15 15 15 18 0 19 11 1 77 -32 119 -111 182 -178 142z"/>
<path d="M1080 1570 l0 -129 33 -5 c17 -3 43 -4 57 -3 l25 2 3 133 3 132 -61
0 -60 0 0 -130z"/>
<path d="M1577 1683 c-2 -5 -16 -55 -31 -113 -15 -58 -30 -113 -32 -123 -4
-14 0 -17 23 -16 15 1 35 -1 43 -5 29 -12 47 18 78 131 18 61 32 117 32 122 0
12 -106 15 -113 4z"/>
<path d="M1684 1537 l-30 -112 59 -3 c33 -2 61 -1 63 1 5 4 -44 195 -55 214
-4 7 -20 -38 -37 -100z"/>
<path d="M2080 1583 l0 -117 30 29 30 29 30 -29 30 -29 0 117 0 117 -60 0 -60
0 0 -117z"/>
<path d="M2570 1583 l0 -117 30 29 30 29 30 -29 30 -29 0 117 0 117 -60 0 -60
0 0 -117z"/>
<path d="M1740 865 c0 -22 4 -25 34 -25 39 0 62 20 44 38 -7 7 -27 12 -45 12
-29 0 -33 -3 -33 -25z"/>
<path d="M1940 851 c-14 -27 -9 -34 18 -29 19 3 19 5 8 27 l-13 24 -13 -22z"/>
<path d="M2090 835 c0 -53 1 -55 28 -55 38 0 72 26 72 55 0 29 -34 55 -72 55
-27 0 -28 -2 -28 -55z"/>
<path d="M2612 874 c-12 -8 -22 -26 -22 -39 0 -25 33 -55 61 -55 19 0 69 37
69 51 0 17 -48 59 -67 59 -10 0 -29 -7 -41 -16z"/>
<path d="M3010 851 c-14 -27 -9 -34 18 -29 19 3 19 5 8 27 l-13 24 -13 -22z"/>
</g>
</svg>
