<svg xmlns="http://www.w3.org/2000/svg" id="Group_3550" data-name="Group 3550" viewBox="7342 2559.5 110 110" class="tabs__link__icon js-svg-fill replaced-svg">
    <defs>
        <style>
            .cls-1 {
                fill: #002969;
            }
            .cls-2 {
                fill: #fff;
                opacity: 0;
            }
        </style>
    </defs>
    <path id="Path_1068" data-name="Path 1068" class="cls-1" d="M7367.95 2606.57a34.638 34.638 0 1 0 34.635-34.636 34.632 34.632 0 0 0-34.634 34.635zm34.635-30.993a30.99 30.99 0 1 1-30.986 30.992 31.03 31.03 0 0 1 30.985-30.993z"></path>
    <path id="Path_1069" data-name="Path 1069" class="cls-1" d="M7423.238 2647.23l1.755 3.545 3.27-1.616-4.956-10.012-3.267 1.62 1.58 3.187a41.95 41.95 0 0 1-38.1-74.75l1.7 3.42 3.265-1.62-4.96-10.005-3.263 1.62 1.644 3.32a45.594 45.594 0 0 0 18.862 86.187v5.547a45.278 45.278 0 0 0-22.908 7.226h7.625a41.736 41.736 0 0 1 34.12 0h7.66a45.652 45.652 0 0 0-22.852-7.226v-5.56a45.62 45.62 0 0 0 18.824-4.888z"></path>
    <path id="Rectangle_857" data-name="Rectangle 857" class="cls-2" d="M7342 2559.5h110v110h-110z"></path>
</svg>